<?xml version="1.0" standalone="no"?>
<!DOCTYPE svg PUBLIC "-//W3C//DTD SVG 20010904//EN"
 "http://www.w3.org/TR/2001/REC-SVG-20010904/DTD/svg10.dtd">
<svg version="1.0" xmlns="http://www.w3.org/2000/svg"
 width="900.000000pt" height="506.000000pt" viewBox="0 0 900.000000 506.000000"
 preserveAspectRatio="xMidYMid meet">

<g transform="translate(0.000000,506.000000) scale(0.100000,-0.100000)"
fill="#000000" stroke="none">
<path d="M0 2530 l0 -2530 4500 0 4500 0 0 2530 0 2530 -4500 0 -4500 0 0
-2530z m7270 0 l0 -1130 -2770 0 -2770 0 0 1130 0 1130 2770 0 2770 0 0 -1130z"/>
<path d="M1760 2525 l0 -1105 2740 0 2740 0 0 1105 0 1105 -2740 0 -2740 0 0
-1105z m603 928 c3 -5 37 -181 77 -393 39 -212 73 -386 75 -388 5 -5 47 213
129 663 l21 120 213 3 212 2 1 -822 c0 -474 4 -810 9 -793 5 17 59 379 120
805 61 426 113 783 116 793 5 15 24 17 214 17 l208 0 6 -27 c4 -16 60 -403
126 -862 66 -459 122 -836 125 -839 3 -3 5 385 5 861 l0 867 252 0 253 0 54
-27 c70 -36 178 -143 216 -216 16 -30 31 -55 32 -53 2 1 -6 61 -17 132 -11 71
-20 137 -20 147 0 15 14 17 160 17 120 0 162 -3 164 -12 2 -7 37 -226 78 -485
40 -260 75 -473 78 -473 5 0 92 536 137 835 7 50 15 100 18 113 l5 22 463 -2
462 -3 3 -192 2 -193 -140 0 -140 0 0 -180 0 -180 140 0 140 0 0 -190 0 -190
-140 0 -140 0 0 -176 0 -175 138 2 137 3 3 -187 2 -187 -22 -5 c-13 -3 -151
-4 -308 -3 l-285 3 -5 860 -5 860 -18 -115 c-10 -63 -34 -214 -53 -335 -19
-121 -72 -456 -117 -745 l-83 -525 -185 -2 c-102 -1 -190 1 -195 5 -6 4 -27
115 -47 247 -35 225 -118 749 -136 860 -7 47 -8 48 -15 20 -29 -125 -43 -169
-73 -230 -19 -38 -54 -95 -79 -127 -24 -31 -44 -62 -44 -69 0 -7 49 -164 110
-350 60 -185 110 -342 110 -348 0 -8 -47 -11 -161 -9 -132 2 -163 6 -170 18
-5 8 -49 142 -99 298 -78 241 -94 282 -110 282 -19 0 -20 -11 -22 -297 l-3
-298 -320 0 c-277 0 -320 2 -322 15 -1 8 -7 48 -13 88 l-12 72 -128 0 c-146 0
-134 8 -145 -96 -4 -33 -10 -66 -14 -73 -6 -9 -83 -11 -322 -9 l-314 3 -3 330
-4 330 -62 -296 c-35 -163 -66 -313 -70 -333 l-7 -37 -92 3 -92 3 -12 55 c-11
48 -106 505 -122 585 -3 17 -8 -121 -11 -305 l-5 -335 -165 0 -165 0 -3 928
-2 927 209 0 c116 0 212 -3 214 -7z m4417 -733 l0 -740 140 0 140 0 -2 -187
-3 -188 -295 0 -295 0 -2 919 c-2 505 0 922 3 927 3 5 75 9 160 9 l154 0 0
-740z"/>
<path d="M4350 2839 l0 -271 32 6 c39 8 94 50 125 95 30 44 47 133 40 214 -10
117 -72 198 -169 221 l-28 6 0 -271z"/>
<path d="M3511 2422 c-18 -130 -35 -249 -38 -264 l-5 -28 75 0 c42 0 78 3 80
8 6 8 -66 508 -73 516 -3 3 -21 -102 -39 -232z"/>
</g>
</svg>
